<svg viewBox="0 0 242.14 242.14" xmlns="http://www.w3.org/2000/svg"><path d="m26.05 67.43v110.66l95.83 55.32 95.83-55.32v-110.66l-95.83-55.32-95.83 55.32z" fill="#f6f5f3"/><path d="m121.88 233.99-.25-.14-96.08-55.47v-111.23l.25-.14 96.08-55.48.25.14 96.08 55.47v111.23l-.25.14-96.08 55.47zm-95.33-56.19 95.33 55.04 95.33-55.04v-110.07l-95.33-55.05-95.33 55.04v110.07z" fill="#231f20"/><path d="m205.2 73.42-84.22-48.63-84.22 48.63v22.76h168.44z" fill="#231f20"/><path d="m205.7 96.68h-169.44v-23.55l.25-.14 84.47-48.77.25.14 84.47 48.77zm-168.44-1h167.44v-21.97l-83.72-48.34-83.72 48.34z" fill="#f6f5f3"/><path d="m211.74 91.76c0 7.677-40.635 13.9-90.76 13.9s-90.76-6.223-90.76-13.9 40.635-13.9 90.76-13.9 90.76 6.223 90.76 13.9z" fill="#231f20"/><path d="m37.85 72.68v30.79h-1v-30.79z" fill="#f6f5f3"/><path d="m205.27 72.88v32.06h-1v-32.06z" fill="#f6f5f3"/><g fill="#231f20"><path d="m126.7 117.88c3.2 0 5.33 2.32 5.33 5.51s-2.1 5.51-5.33 5.51-5.33-2.32-5.33-5.51c0-3.2 2.13-5.51 5.33-5.51"/><path d="m120.23 116.93-2.9 2.35c-.74-.88-1.84-1.4-3.23-1.4-2.87 0-4.96 2.32-4.96 5.51s2.1 5.51 4.85 5.51c1.51 0 2.76-.66 3.53-1.84l3.16 2.35c-1.43 2.02-3.86 2.98-6.18 2.98-5.33 0-9.23-3.49-9.23-8.97s3.9-8.97 9.23-8.97c1.87-.04 4.26.59 5.73 2.46"/><path d="m91.52 131.96v-17.09h11.62v3.49h-7.87v3.2h7.43v3.49h-7.43v3.49h8.31v3.49h-12.06"/><path d="m73.32 114.87h5.66c5.51 0 10.15 2.35 10.15 8.6 0 5.51-4.52 8.49-9.63 8.49h-6.18z"/><path d="m61.7 114.43c5.33 0 9.23 3.49 9.23 8.97s-3.9 8.97-9.23 8.97-9.23-3.49-9.23-8.97c-.04-5.48 3.86-8.97 9.23-8.97"/><path d="m50.05 131.96h-4.93l-7.46-12.17h-.04v12.17h-3.79v-17.09h5.11l7.28 11.87h.07v-11.87h3.79v17.09"/><path d="m151.11 131.96h-4.93l-7.46-12.17h-.04v12.17h-3.79v-17.09h5.11l7.28 11.87h.04v-11.87h3.79z"/><path d="m165.96 118.32h-7.72v3.49h7.13v3.49h-7.13v6.65h-3.79v-17.09h11.51z"/><text font-family="Gotham-Bold,Gotham" font-size="25.37" font-weight="700" letter-spacing="-.01em" transform="translate(174.64 132.94)"><tspan x="0" y="0">EU</tspan></text></g><path d="m38.36 172.94 84.23 48.63 84.22-48.63v-22.76h-168.45z" fill="#f6f5f3"/><path d="m122.59 222.14-.25-.14-84.47-48.77v-23.55h169.44v23.55l-.25.14zm-83.73-49.49 83.72 48.34 83.72-48.34v-21.97h-167.44z" fill="#231f20"/><path d="m207 159.72c4.1-1.58 6.35-3.31 6.35-5.12 0-7.67-40.64-13.9-90.76-13.9s-90.76 6.22-90.76 13.9c0 1.84 2.33 3.59 6.57 5.2" fill="#f6f5f3"/><path d="m38.21 160.27c-4.64-1.76-6.89-3.61-6.89-5.67 0-9.01 46.4-14.4 91.27-14.4s91.26 5.38 91.26 14.4c0 2.02-2.18 3.85-6.67 5.58l-.36-.93c3.94-1.52 6.03-3.13 6.03-4.65 0-6.47-36.27-13.4-90.26-13.4s-90.27 6.93-90.27 13.4c0 1.55 2.16 3.18 6.24 4.73z" fill="#231f20"/><path d="m39 149.36v23.56h-1v-23.56z" fill="#231f20"/><path d="m207.3 149.12v23.32h-1v-23.32z" fill="#231f20"/><path d="m86.81 178.86 6.67-5.46c2.49-2.06 3.46-3.15 3.46-4.81s-1.12-2.6-2.69-2.6-2.6.86-4.09 2.69l-3.09-2.49c1.97-2.69 3.89-4.15 7.47-4.15 4.15 0 6.89 2.43 6.89 6.18v.06c0 3.35-1.72 5.01-5.26 7.75l-3.26 2.52h8.73v3.8h-14.82v-3.49z" fill="#231f20"/><path d="m104.37 172.39v-.06c0-5.81 3.6-10.36 8.93-10.36s8.87 4.49 8.87 10.3v.06c0 5.81-3.58 10.36-8.93 10.36s-8.87-4.49-8.87-10.3zm13.28 0v-.06c0-3.63-1.77-6.38-4.41-6.38s-4.35 2.66-4.35 6.32v.06c0 3.66 1.75 6.38 4.41 6.38s4.35-2.69 4.35-6.32z" fill="#231f20"/><path d="m124.43 178.86 6.67-5.46c2.49-2.06 3.46-3.15 3.46-4.81s-1.12-2.6-2.69-2.6-2.6.86-4.09 2.69l-3.09-2.49c1.97-2.69 3.89-4.15 7.47-4.15 4.15 0 6.89 2.43 6.89 6.18v.06c0 3.35-1.72 5.01-5.26 7.75l-3.26 2.52h8.73v3.8h-14.82v-3.49z" fill="#231f20"/><path d="m151.41 178.03h-9.78l-.72-3.12 10.99-12.73h3.72v12.27h2.69v3.58h-2.69v4.32h-4.21zm0-3.58v-6.24l-5.32 6.24z" fill="#231f20"/></svg>